<svg xmlns="http://www.w3.org/2000/svg" viewBox="0 0 1600 900" role="img" aria-labelledby="title desc"><title id="title">Harness OS Mission Control</title><desc id="desc">Hosted Mission Control visual with TrueForge, H-005 evidence, causal trace and human approval.</desc><rect width="1600" height="900" fill="#07111f"/><g font-family="Inter,Arial,sans-serif"><text x="80" y="88" fill="#eef6ff" font-size="42" font-weight="900">Harness OS · Mission Control</text><text x="80" y="126" fill="#7e99b6" font-size="20">TrueForge runtime → MCP tools → evidence → human approval</text><rect x="80" y="180" width="1440" height="150" rx="24" fill="#0a1a2a" stroke="#26455f"/><text x="110" y="225" fill="#76c5ff" font-size="16" font-weight="800">ACTIVE TARGET</text><text x="110" y="272" fill="#fff" font-size="32" font-weight="900">harness-os · main</text><rect x="1180" y="218" width="280" height="62" rx="14" fill="#1e78b4"/><text x="1230" y="257" fill="#fff" font-size="20" font-weight="800">Inspect with TrueForge</text><g><rect x="80" y="365" width="430" height="160" rx="20" fill="#0a1928" stroke="#21415d"/><text x="110" y="405" fill="#7794b0" font-size="14" font-weight="800">WHAT IT'S DOING</text><text x="110" y="455" fill="#fff" font-size="28" font-weight="900">Proving H-005</text><text x="110" y="492" fill="#94abc1" font-size="17">FaultLine + persisted fixture evidence</text><rect x="585" y="365" width="430" height="160" rx="20" fill="#0a1928" stroke="#21415d"/><text x="615" y="405" fill="#7794b0" font-size="14" font-weight="800">WHAT IT'S WAITING ON</text><text x="615" y="455" fill="#fff" font-size="28" font-weight="900">Human approval</text><text x="615" y="492" fill="#94abc1" font-size="17">GitHub write stays paused</text><rect x="1090" y="365" width="430" height="160" rx="20" fill="#201219" stroke="#753449"/><text x="1120" y="405" fill="#ff9daa" font-size="14" font-weight="800">WHAT IT PROVED</text><text x="1120" y="455" fill="#fff" font-size="28" font-weight="900">$249 → $498</text><text x="1120" y="492" fill="#ff9daa" font-size="17">H-005 FAIL · CRITICAL</text></g><text x="80" y="590" fill="#76c5ff" font-size="16" font-weight="800">CAUSAL FLIGHT RECORDER</text><g font-size="16"><rect x="80" y="620" width="240" height="110" rx="16" fill="#0b1d2e" stroke="#294a67"/><text x="105" y="662" fill="#fff" font-weight="800">01 refund.create</text><text x="105" y="700" fill="#91a9c0">$249</text><rect x="365" y="620" width="240" height="110" rx="16" fill="#0b1d2e" stroke="#294a67"/><text x="390" y="662" fill="#fff" font-weight="800">02 remote SUCCESS</text><text x="390" y="700" fill="#91a9c0">effect committed</text><rect x="650" y="620" width="240" height="110" rx="16" fill="#0b1d2e" stroke="#294a67"/><text x="675" y="662" fill="#fff" font-weight="800">03 TIMEOUT</text><text x="675" y="700" fill="#91a9c0">response lost</text><rect x="935" y="620" width="240" height="110" rx="16" fill="#0b1d2e" stroke="#294a67"/><text x="960" y="662" fill="#fff" font-weight="800">04 repeated call</text><text x="960" y="700" fill="#91a9c0">no idempotency key</text><rect x="1220" y="620" width="300" height="110" rx="16" fill="#241219" stroke="#81374a"/><text x="1245" y="662" fill="#fff" font-weight="800">05 H-005 CONFIRMED</text><text x="1245" y="700" fill="#ff9daa">2 refunds · 49,800¢</text></g><rect x="80" y="780" width="1440" height="70" rx="18" fill="#10241a" stroke="#39724d"/><text x="110" y="824" fill="#bdf7cf" font-size="22" font-weight="800">HUMAN BRAKE · review exact GitHub MCP tool, repository, branch and tool-call ID before mutation</text></g></svg>